<svg width="31" height="35" viewBox="0 0 31 35" fill="none" xmlns="http://www.w3.org/2000/svg">
<g id="Group">
<path id="Vector" fill-rule="evenodd" clip-rule="evenodd" d="M14.5145 0.234456C14.7806 0.0808611 15.0823 0 15.3895 0C15.6967 0 15.9985 0.0808611 16.2645 0.234456L19.7645 2.25571C20.1632 2.48943 20.4532 2.87134 20.5714 3.31811C20.6895 3.76487 20.6261 4.24023 20.395 4.64043C20.164 5.04064 19.784 5.3332 19.338 5.45428C18.892 5.57536 18.4163 5.51512 18.0145 5.28672L17.1395 4.78097V6.99997C17.1395 7.4641 16.9552 7.90922 16.627 8.23741C16.2988 8.5656 15.8537 8.74998 15.3895 8.74998C14.9254 8.74998 14.4803 8.5656 14.1521 8.23741C13.8239 7.90922 13.6395 7.4641 13.6395 6.99997V4.78097L12.7645 5.28672C12.3628 5.51512 11.887 5.57536 11.4411 5.45428C10.9951 5.3332 10.6151 5.04064 10.384 4.64043C10.153 4.24023 10.0896 3.76487 10.2077 3.31811C10.3258 2.87134 10.6159 2.48943 11.0145 2.25571L14.5145 0.234456ZM6.76552 6.72872C6.99757 7.13066 7.06046 7.60832 6.94034 8.05662C6.82022 8.50493 6.52694 8.88716 6.12501 9.11923L5.25001 9.62498L7.17152 10.7345C7.37215 10.8486 7.54823 11.0012 7.68964 11.1836C7.83104 11.366 7.93497 11.5745 7.99544 11.7973C8.05591 12.02 8.07172 12.2525 8.04198 12.4814C8.01223 12.7102 7.9375 12.9309 7.82211 13.1308C7.70671 13.3307 7.55292 13.5057 7.36958 13.6459C7.18625 13.7861 6.977 13.8887 6.75387 13.9477C6.53075 14.0067 6.29816 14.0209 6.0695 13.9897C5.84083 13.9584 5.62061 13.8822 5.42151 13.7655L3.50001 12.656V13.6657C3.50001 14.1299 3.31563 14.575 2.98744 14.9032C2.65926 15.2314 2.21413 15.4157 1.75 15.4157C1.28587 15.4157 0.840754 15.2314 0.512564 14.9032C0.184375 14.575 0 14.1299 0 13.6657V9.62498C0.000314775 9.31809 0.0813249 9.01669 0.234904 8.75099C0.388483 8.4853 0.609231 8.26467 0.875002 8.11123L4.37501 6.08997C4.77695 5.85792 5.25461 5.79503 5.70291 5.91515C6.15122 6.03526 6.53344 6.32854 6.76552 6.73047V6.72872ZM24.0136 6.72872C24.2456 6.32679 24.6279 6.03351 25.0762 5.9134C25.5245 5.79328 26.0021 5.85617 26.4041 6.08822L29.9041 8.10947C30.1701 8.26307 30.391 8.48398 30.5446 8.75C30.6982 9.01603 30.7791 9.3178 30.7791 9.62498V13.6675C30.7791 14.1316 30.5947 14.5767 30.2665 14.9049C29.9383 15.2331 29.4932 15.4175 29.0291 15.4175C28.5649 15.4175 28.1198 15.2331 27.7916 14.9049C27.4634 14.5767 27.2791 14.1316 27.2791 13.6675V12.656L25.3576 13.7655C24.9558 13.9939 24.4801 14.0541 24.0341 13.9331C23.5881 13.812 23.2081 13.5194 22.9771 13.1192C22.746 12.719 22.6826 12.2436 22.8007 11.7969C22.9189 11.3501 23.2089 10.9682 23.6076 10.7345L25.5291 9.62498L24.6541 9.11923C24.2521 8.88716 23.9589 8.50493 23.8387 8.05662C23.7186 7.60832 23.7815 7.13066 24.0136 6.72872ZM9.32752 14C9.5596 13.5981 9.94182 13.3048 10.3901 13.1847C10.8384 13.0645 11.3161 13.1274 11.718 13.3595L15.3895 15.4787L19.061 13.3595C19.4628 13.1311 19.9385 13.0708 20.3845 13.1919C20.8305 13.313 21.2105 13.6056 21.4415 14.0058C21.6726 14.406 21.736 14.8813 21.6179 15.3281C21.4998 15.7749 21.2097 16.1568 20.8111 16.3905L17.1395 18.5098V22.75C17.1395 23.2141 16.9552 23.6593 16.627 23.9874C16.2988 24.3156 15.8537 24.5 15.3895 24.5C14.9254 24.5 14.4803 24.3156 14.1521 23.9874C13.8239 23.6593 13.6395 23.2141 13.6395 22.75V18.5098L9.96803 16.3905C9.5661 16.1584 9.27282 15.7762 9.1527 15.3279C9.03258 14.8796 9.09547 14.4019 9.32752 14ZM1.75 19.5825C2.21413 19.5825 2.65926 19.7669 2.98744 20.0951C3.31563 20.4233 3.50001 20.8684 3.50001 21.3325V22.344L5.42151 21.2345C5.82324 21.0061 6.299 20.9459 6.74498 21.0669C7.19096 21.188 7.57094 21.4806 7.802 21.8808C8.03306 22.281 8.09645 22.7564 7.97834 23.2031C7.86022 23.6499 7.57018 24.0318 7.17152 24.2655L5.25001 25.375L6.12501 25.8808C6.32564 25.9948 6.50173 26.1475 6.64313 26.3299C6.78454 26.5123 6.88847 26.7208 6.94893 26.9436C7.0094 27.1663 7.02522 27.3988 6.99547 27.6276C6.96572 27.8565 6.891 28.0772 6.7756 28.2771C6.66021 28.477 6.50641 28.652 6.32308 28.7922C6.13975 28.9324 5.93049 29.035 5.70737 29.094C5.48425 29.1529 5.25166 29.1672 5.02299 29.1359C4.79433 29.1047 4.57411 29.0285 4.37501 28.9118L0.875002 26.8905C0.608974 26.7369 0.388061 26.516 0.234467 26.25C0.0808723 25.984 7.80365e-06 25.6822 0 25.375V21.3325C0 20.8684 0.184375 20.4233 0.512564 20.0951C0.840754 19.7669 1.28587 19.5825 1.75 19.5825ZM29.0291 19.5825C29.4932 19.5825 29.9383 19.7669 30.2665 20.0951C30.5947 20.4233 30.7791 20.8684 30.7791 21.3325V25.375C30.7791 25.6822 30.6982 25.984 30.5446 26.25C30.391 26.516 30.1701 26.7369 29.9041 26.8905L26.4041 28.9118C26.205 29.0285 25.9847 29.1047 25.7561 29.1359C25.5274 29.1672 25.2948 29.1529 25.0717 29.094C24.8486 29.035 24.6393 28.9324 24.456 28.7922C24.2727 28.652 24.1189 28.477 24.0035 28.2771C23.8881 28.0772 23.8134 27.8565 23.7836 27.6276C23.7539 27.3988 23.7697 27.1663 23.8301 26.9436C23.8906 26.7208 23.9945 26.5123 24.1359 26.3299C24.2773 26.1475 24.4534 25.9948 24.6541 25.8808L25.5291 25.375L23.6076 24.2655C23.4069 24.1514 23.2308 23.9988 23.0894 23.8164C22.948 23.634 22.8441 23.4255 22.7836 23.2027C22.7232 22.98 22.7074 22.7475 22.7371 22.5186C22.7668 22.2898 22.8416 22.0691 22.957 21.8692C23.0724 21.6693 23.2262 21.4942 23.4095 21.3541C23.5928 21.2139 23.8021 21.1113 24.0252 21.0523C24.2483 20.9933 24.4809 20.9791 24.7096 21.0103C24.9382 21.0416 25.1585 21.1178 25.3576 21.2345L27.2791 22.344V21.3343C27.2791 20.8701 27.4634 20.425 27.7916 20.0968C28.1198 19.7686 28.5649 19.5843 29.0291 19.5843V19.5825ZM15.3895 26.25C15.8537 26.25 16.2988 26.4344 16.627 26.7626C16.9552 27.0908 17.1395 27.5359 17.1395 28V30.219L18.0145 29.7133C18.2136 29.5966 18.4339 29.5204 18.6625 29.4891C18.8912 29.4578 19.1238 29.4721 19.3469 29.5311C19.57 29.5901 19.7793 29.6926 19.9626 29.8328C20.1459 29.973 20.2997 30.1481 20.4151 30.348C20.5305 30.5478 20.6053 30.7685 20.635 30.9974C20.6648 31.2263 20.6489 31.4588 20.5885 31.6815C20.528 31.9042 20.4241 32.1128 20.2827 32.2952C20.1413 32.4776 19.9652 32.6302 19.7645 32.7443L16.2645 34.7655C15.9985 34.9191 15.6967 35 15.3895 35C15.0823 35 14.7806 34.9191 14.5145 34.7655L11.0145 32.7443C10.8139 32.6302 10.6378 32.4776 10.4964 32.2952C10.355 32.1128 10.2511 31.9042 10.1906 31.6815C10.1301 31.4588 10.1143 31.2263 10.1441 30.9974C10.1738 30.7685 10.2485 30.5478 10.3639 30.348C10.4793 30.1481 10.6331 29.973 10.8165 29.8328C10.9998 29.6926 11.209 29.5901 11.4322 29.5311C11.6553 29.4721 11.8879 29.4578 12.1165 29.4891C12.3452 29.5204 12.5654 29.5966 12.7645 29.7133L13.6395 30.219V28C13.6395 27.5359 13.8239 27.0908 14.1521 26.7626C14.4803 26.4344 14.9254 26.25 15.3895 26.25Z" fill="url(#paint0_linear_4007_5225)"/>
</g>
<defs>
<linearGradient id="paint0_linear_4007_5225" x1="1.25402" y1="-5.625" x2="50.1998" y2="17.7934" gradientUnits="userSpaceOnUse">
<stop stop-color="#74EBD5"/>
<stop offset="0.46" stop-color="#9FACE6"/>
<stop offset="1" stop-color="#71A4F1"/>
</linearGradient>
</defs>
</svg>
