<svg width="16" height="16" viewBox="0 0 16 16" fill="none" xmlns="http://www.w3.org/2000/svg">
<g id="mingcute:add-fill">
<g id="Group">
<path id="Vector" d="M6.99984 13.3334C6.99984 13.5986 7.10519 13.8529 7.29273 14.0405C7.48027 14.228 7.73462 14.3334 7.99984 14.3334C8.26505 14.3334 8.51941 14.228 8.70694 14.0405C8.89448 13.8529 8.99984 13.5986 8.99984 13.3334V9.00002H13.3332C13.5984 9.00002 13.8527 8.89466 14.0403 8.70713C14.2278 8.51959 14.3332 8.26524 14.3332 8.00002C14.3332 7.7348 14.2278 7.48045 14.0403 7.29291C13.8527 7.10538 13.5984 7.00002 13.3332 7.00002H8.99984V2.66669C8.99984 2.40147 8.89448 2.14712 8.70694 1.95958C8.51941 1.77204 8.26505 1.66669 7.99984 1.66669C7.73462 1.66669 7.48027 1.77204 7.29273 1.95958C7.10519 2.14712 6.99984 2.40147 6.99984 2.66669V7.00002H2.6665C2.40129 7.00002 2.14693 7.10538 1.9594 7.29291C1.77186 7.48045 1.6665 7.7348 1.6665 8.00002C1.6665 8.26524 1.77186 8.51959 1.9594 8.70713C2.14693 8.89466 2.40129 9.00002 2.6665 9.00002H6.99984V13.3334Z" fill="#3E3E3E"/>
</g>
</g>
</svg>
