<svg width="48" height="48" viewBox="0 0 48 48" fill="none" xmlns="http://www.w3.org/2000/svg">
<g id="mingcute:arrow-up-circle-fill" clip-path="url(#clip0_3996_4955)">
<g id="Group">
<path id="Vector" fill-rule="evenodd" clip-rule="evenodd" d="M24 4C12.954 4 4 12.954 4 24C4 35.046 12.954 44 24 44C35.046 44 44 35.046 44 24C44 12.954 35.046 4 24 4ZM15.516 23.992C15.8911 24.3669 16.3997 24.5776 16.93 24.5776C17.4603 24.5776 17.9689 24.3669 18.344 23.992L22 20.334V32.486C22 33.0164 22.2107 33.5251 22.5858 33.9002C22.9609 34.2753 23.4696 34.486 24 34.486C24.5304 34.486 25.0391 34.2753 25.4142 33.9002C25.7893 33.5251 26 33.0164 26 32.486V20.334L29.658 23.992C30.0333 24.367 30.5422 24.5776 31.0727 24.5774C31.6032 24.5772 32.112 24.3663 32.487 23.991C32.862 23.6157 33.0726 23.1068 33.0724 22.5763C33.0722 22.0458 32.8613 21.537 32.486 21.162L25.414 14.092C25.0389 13.7171 24.5303 13.5064 24 13.5064C23.4697 13.5064 22.9611 13.7171 22.586 14.092L15.516 21.16C15.33 21.3457 15.1825 21.5663 15.0819 21.8091C14.9812 22.0519 14.9294 22.3122 14.9294 22.575C14.9294 22.8378 14.9812 23.0981 15.0819 23.3409C15.1825 23.5837 15.33 23.8043 15.516 23.99V23.992Z" fill="url(#paint0_linear_3996_4955)"/>
</g>
</g>
<defs>
<linearGradient id="paint0_linear_3996_4955" x1="4" y1="24" x2="44" y2="24" gradientUnits="userSpaceOnUse">
<stop stop-color="#9FACE6"/>
<stop offset="1" stop-color="#71A4F1"/>
</linearGradient>
<clipPath id="clip0_3996_4955">
<rect width="48" height="48" fill="white"/>
</clipPath>
</defs>
</svg>
