<svg width="48" height="48" viewBox="0 0 48 48" fill="none" xmlns="http://www.w3.org/2000/svg">
<g id="mingcute:left-line" clip-path="url(#clip0_4007_5495)">
<g id="Group">
<path id="Vector" fill-rule="evenodd" clip-rule="evenodd" d="M16.5856 25.414C16.2106 25.0389 16 24.5303 16 24C16 23.4696 16.2106 22.961 16.5856 22.586L27.8996 11.272C28.0841 11.0809 28.3048 10.9286 28.5488 10.8238C28.7928 10.7189 29.0552 10.6638 29.3208 10.6615C29.5863 10.6591 29.8497 10.7097 30.0955 10.8103C30.3413 10.9109 30.5646 11.0594 30.7524 11.2472C30.9401 11.4349 31.0887 11.6583 31.1892 11.904C31.2898 12.1498 31.3404 12.4132 31.3381 12.6788C31.3358 12.9443 31.2806 13.2068 31.1758 13.4508C31.071 13.6948 30.9186 13.9155 30.7276 14.1L20.8276 24L30.7276 33.9C31.0919 34.2772 31.2935 34.7824 31.2889 35.3068C31.2844 35.8311 31.074 36.3328 30.7032 36.7036C30.3324 37.0744 29.8308 37.2847 29.3064 37.2893C28.782 37.2939 28.2768 37.0923 27.8996 36.728L16.5856 25.414Z" fill="#71A4F1"/>
</g>
</g>
<defs>
<clipPath id="clip0_4007_5495">
<rect width="48" height="48" fill="white"/>
</clipPath>
</defs>
</svg>
