<svg width="24" height="24" viewBox="0 0 24 24" fill="none" xmlns="http://www.w3.org/2000/svg">
<path d="M18.3618 5.64544C17.4179 4.69421 16.2721 3.9669 15.0091 3.51721C13.746 3.06751 12.3979 2.90693 11.0644 3.04731C6.93143 3.46346 3.53046 6.81516 3.06873 10.9429C2.44935 16.3979 6.67241 20.998 11.9991 20.998C13.6997 20.998 15.3654 20.5161 16.8027 19.6083C18.24 18.7004 19.3898 17.4038 20.1186 15.8693C20.479 15.1157 19.9385 14.2496 19.1051 14.2496C18.6884 14.2496 18.2943 14.4746 18.1141 14.8458C17.4603 16.2506 16.3419 17.3876 14.9473 18.0657C13.5526 18.7437 11.9667 18.9213 10.4563 18.5686C7.95622 18.0175 5.94042 15.9817 5.41113 13.4848C5.18863 12.4976 5.19121 11.4731 5.41866 10.487C5.64612 9.50087 6.09263 8.57846 6.72517 7.78797C7.35772 6.99747 8.16011 6.35912 9.07299 5.92012C9.98588 5.48112 10.9859 5.25271 11.9991 5.25178C13.8685 5.25178 15.5352 6.02785 16.7515 7.25381L15.051 8.95216C14.3415 9.66074 14.837 10.8754 15.8393 10.8754H19.8822C20.5015 10.8754 21.0083 10.3693 21.0083 9.75072V5.71292C21.0083 4.71191 19.7921 4.20578 19.0826 4.91436L18.3618 5.64544Z" fill="#EEEEEE"/>
</svg>
