<svg width="21" height="80" viewBox="0 0 21 80" fill="none" xmlns="http://www.w3.org/2000/svg">
<path id="Vector" d="M11.0262 1.32121C10.6909 0.483068 9.50448 0.483105 9.16925 1.32127L0.193241 23.7638C0.0942393 24.0113 0.0976941 24.2945 0.289099 24.48C0.330818 24.5205 0.378584 24.5636 0.433281 24.6095C0.829844 24.94 1.57156 25.3439 2.54277 25.6743C4.48336 26.3169 7.29785 26.6841 10.0977 26.6841C12.8883 26.6841 15.7156 26.3169 17.6617 25.6743C18.6164 25.3439 19.3691 24.94 19.7547 24.6095C19.7989 24.5686 19.8388 24.5309 19.8747 24.4959C20.0791 24.2965 20.0979 23.9988 19.9918 23.7336L11.0262 1.32121ZM1.46238 28.7847C0.764314 28.5633 0 29.0487 0 29.7811V31.329C0 31.5126 0.0367188 31.6595 0.433281 32.0083C0.829844 32.3388 1.57156 32.7427 2.54277 33.0732C4.48336 33.7157 7.29785 34.0829 10.0977 34.0829C12.8883 34.0829 15.7156 33.7157 17.6617 33.0732C18.6164 32.7427 19.3691 32.3388 19.7547 32.0083C20.1586 31.6595 20.1953 31.5126 20.1953 31.329V29.7708C20.1953 29.041 19.4375 28.5592 18.7417 28.7792C18.7244 28.7846 18.7072 28.7901 18.6898 28.7954C16.2297 29.6216 13.182 29.9888 10.0977 29.9888C7.02246 29.9888 3.96195 29.6216 1.49629 28.7954C1.48497 28.7919 1.47367 28.7883 1.46238 28.7847ZM1.46238 36.1836C0.764314 35.9621 0 36.4476 0 37.1799V64.4335C0 64.5888 0.036182 64.742 0.105678 64.8809L2.90826 70.4828C3.04917 70.7644 3.04917 71.096 2.90826 71.3776L0.288038 76.6149C0.14717 76.8965 0.152325 77.2304 0.385542 77.4419C0.400818 77.4558 0.416722 77.47 0.433281 77.4845C0.829844 77.815 1.57156 78.2189 2.54277 78.5493C4.48336 79.1919 7.29785 79.5591 10.0977 79.5591C12.8883 79.5591 15.7156 79.1919 17.6617 78.5493C18.6164 78.2189 19.3691 77.815 19.7547 77.4845C20.0273 77.2573 20.0417 76.8664 19.8823 76.5493L17.2815 71.3789C17.1395 71.0965 17.1393 70.7637 17.281 70.4812L20.0892 64.8812C20.159 64.7421 20.1953 64.5886 20.1953 64.433V37.1697C20.1953 36.4399 19.4375 35.958 18.7417 36.178C18.7244 36.1835 18.7072 36.1889 18.6898 36.1943C16.2297 37.0204 13.182 37.3876 10.0977 37.3876C7.02246 37.3876 3.96195 37.0204 1.49629 36.1943C1.48497 36.1907 1.47367 36.1871 1.46238 36.1836Z" fill="#74EBD5"/>
</svg>
