<svg width="32" height="32" viewBox="0 0 32 32" fill="none" xmlns="http://www.w3.org/2000/svg">
<g id="Property 1=&#230;&#184;&#133;&#231;&#169;&#186;&#229;&#189;&#147;&#229;&#137;&#141;&#229;&#184;&#167;">
<path id="Vector" fill-rule="evenodd" clip-rule="evenodd" d="M19.2758 3.13626C20.3001 3.41121 21.1733 4.08172 21.7034 5.00034C22.2335 5.91896 22.377 7.01049 22.1025 8.03492L20.7225 13.1869L22.5331 13.6709C24.7385 14.2629 25.8798 16.4976 25.5705 18.5456C25.4238 19.5176 25.3651 20.4736 25.4838 21.1696C25.7305 22.6149 26.5611 24.0309 27.4278 25.2669L27.8998 25.9229C28.0494 26.1208 28.1408 26.3565 28.1638 26.6035C28.1867 26.8505 28.1403 27.0991 28.0298 27.3211C27.9192 27.5432 27.7489 27.73 27.538 27.8606C27.327 27.9912 27.0839 28.0603 26.8358 28.0603H7.50247C7.0758 28.0603 6.66647 27.8496 6.41847 27.5029C5.76647 26.5909 5.30113 25.5589 4.91847 24.5109C4.2518 22.6923 3.6958 20.1203 4.1878 17.1749C4.48978 15.2979 5.13523 13.4926 6.0918 11.8496C6.96513 10.3723 8.66647 9.95626 10.0798 10.3349L12.9958 11.1163L14.3758 5.96426C14.6505 4.93969 15.3209 4.06617 16.2395 3.53583C17.1582 3.00549 18.2512 2.86176 19.2758 3.13626ZM10.8065 20.0603C10.6314 20.0615 10.4582 20.0972 10.2969 20.1653C10.1356 20.2335 9.98933 20.3327 9.86638 20.4574C9.74344 20.5821 9.64625 20.7297 9.58038 20.892C9.51451 21.0542 9.48124 21.2278 9.48247 21.4029C9.4918 22.7683 9.91847 24.0763 10.3745 25.0963L10.5105 25.3936H13.5465C13.3585 25.0908 13.1841 24.7799 13.0238 24.4616C12.6105 23.6389 12.2465 22.6643 12.1651 21.7323L12.1491 21.3843C12.1467 21.0309 12.004 20.6929 11.7525 20.4446C11.501 20.1964 11.1599 20.0581 10.8065 20.0603ZM16.9505 6.65492L15.2251 13.0949C15.1333 13.4363 14.9096 13.7272 14.6034 13.9038C14.2971 14.0803 13.9332 14.1279 13.5918 14.0363L9.38913 12.9109C8.87847 12.7736 8.5278 12.9683 8.3878 13.2056C8.01498 13.8395 7.70122 14.5063 7.45047 15.1976L22.7971 19.2683C22.8305 18.8776 22.8785 18.4976 22.9318 18.1456C23.0718 17.2256 22.5358 16.4336 21.8411 16.2469L18.7438 15.4176C18.5746 15.3723 18.4161 15.2941 18.2772 15.1874C18.1382 15.0808 18.0217 14.9479 17.9341 14.7962C17.8466 14.6445 17.7898 14.4771 17.767 14.3035C17.7442 14.1298 17.7558 13.9534 17.8011 13.7843L19.5265 7.34426C19.616 7.00327 19.5669 6.64071 19.3898 6.33586C19.2127 6.03102 18.9221 5.80872 18.5815 5.71758C18.241 5.62645 17.8782 5.6739 17.5725 5.84956C17.2668 6.02522 17.0432 6.31479 16.9505 6.65492Z" fill="#989898"/>
</g>
</svg>
